<mxfile host="app.diagrams.net" modified="2022-04-10T09:35:24.628Z" agent="5.0 (Windows NT 10.0; Win64; x64) AppleWebKit/537.36 (KHTML, like Gecko) Chrome/100.0.4896.75 Safari/537.36" etag="W_-UGtolY_GZDCYq1g_e" version="17.4.1" type="github">
  <diagram id="vmTOpM15BdBLXY-FnDdC" name="Page-1">
    <mxGraphModel dx="1014" dy="567" grid="1" gridSize="10" guides="1" tooltips="1" connect="1" arrows="1" fold="1" page="1" pageScale="1" pageWidth="850" pageHeight="1100" math="0" shadow="0">
      <root>
        <mxCell id="0" />
        <mxCell id="1" parent="0" />
        <mxCell id="U-wffOwQVO6PHUZPgBqM-1" value="Pihak Kampus" style="swimlane;fontStyle=0;childLayout=stackLayout;horizontal=1;startSize=26;fillColor=none;horizontalStack=0;resizeParent=1;resizeParentMax=0;resizeLast=0;collapsible=1;marginBottom=0;" vertex="1" parent="1">
          <mxGeometry x="425" width="140" height="104" as="geometry" />
        </mxCell>
        <mxCell id="U-wffOwQVO6PHUZPgBqM-2" value="+ id_nama: int" style="text;strokeColor=none;fillColor=none;align=left;verticalAlign=top;spacingLeft=4;spacingRight=4;overflow=hidden;rotatable=0;points=[[0,0.5],[1,0.5]];portConstraint=eastwest;" vertex="1" parent="U-wffOwQVO6PHUZPgBqM-1">
          <mxGeometry y="26" width="140" height="26" as="geometry" />
        </mxCell>
        <mxCell id="U-wffOwQVO6PHUZPgBqM-3" value="+ nama_user: varchar" style="text;strokeColor=none;fillColor=none;align=left;verticalAlign=top;spacingLeft=4;spacingRight=4;overflow=hidden;rotatable=0;points=[[0,0.5],[1,0.5]];portConstraint=eastwest;" vertex="1" parent="U-wffOwQVO6PHUZPgBqM-1">
          <mxGeometry y="52" width="140" height="26" as="geometry" />
        </mxCell>
        <mxCell id="U-wffOwQVO6PHUZPgBqM-4" value="+ pass_user: varchar" style="text;strokeColor=none;fillColor=none;align=left;verticalAlign=top;spacingLeft=4;spacingRight=4;overflow=hidden;rotatable=0;points=[[0,0.5],[1,0.5]];portConstraint=eastwest;" vertex="1" parent="U-wffOwQVO6PHUZPgBqM-1">
          <mxGeometry y="78" width="140" height="26" as="geometry" />
        </mxCell>
        <mxCell id="U-wffOwQVO6PHUZPgBqM-5" value="Data Dosen" style="swimlane;fontStyle=0;childLayout=stackLayout;horizontal=1;startSize=26;fillColor=none;horizontalStack=0;resizeParent=1;resizeParentMax=0;resizeLast=0;collapsible=1;marginBottom=0;" vertex="1" parent="1">
          <mxGeometry x="150" width="150" height="130" as="geometry" />
        </mxCell>
        <mxCell id="U-wffOwQVO6PHUZPgBqM-6" value="+ id_dosen: int" style="text;strokeColor=none;fillColor=none;align=left;verticalAlign=top;spacingLeft=4;spacingRight=4;overflow=hidden;rotatable=0;points=[[0,0.5],[1,0.5]];portConstraint=eastwest;" vertex="1" parent="U-wffOwQVO6PHUZPgBqM-5">
          <mxGeometry y="26" width="150" height="26" as="geometry" />
        </mxCell>
        <mxCell id="U-wffOwQVO6PHUZPgBqM-7" value="+ nama_dosen: varchar" style="text;strokeColor=none;fillColor=none;align=left;verticalAlign=top;spacingLeft=4;spacingRight=4;overflow=hidden;rotatable=0;points=[[0,0.5],[1,0.5]];portConstraint=eastwest;" vertex="1" parent="U-wffOwQVO6PHUZPgBqM-5">
          <mxGeometry y="52" width="150" height="26" as="geometry" />
        </mxCell>
        <mxCell id="U-wffOwQVO6PHUZPgBqM-8" value="+ alamat_dosen: varchar&#xa;&#xa;+ kontak_dosen: varchar" style="text;strokeColor=none;fillColor=none;align=left;verticalAlign=top;spacingLeft=4;spacingRight=4;overflow=hidden;rotatable=0;points=[[0,0.5],[1,0.5]];portConstraint=eastwest;" vertex="1" parent="U-wffOwQVO6PHUZPgBqM-5">
          <mxGeometry y="78" width="150" height="52" as="geometry" />
        </mxCell>
        <mxCell id="U-wffOwQVO6PHUZPgBqM-9" value="Bimbingan" style="swimlane;fontStyle=0;childLayout=stackLayout;horizontal=1;startSize=26;fillColor=none;horizontalStack=0;resizeParent=1;resizeParentMax=0;resizeLast=0;collapsible=1;marginBottom=0;" vertex="1" parent="1">
          <mxGeometry x="680" width="160" height="104" as="geometry" />
        </mxCell>
        <mxCell id="U-wffOwQVO6PHUZPgBqM-10" value="+ id_bimbingan: int" style="text;strokeColor=none;fillColor=none;align=left;verticalAlign=top;spacingLeft=4;spacingRight=4;overflow=hidden;rotatable=0;points=[[0,0.5],[1,0.5]];portConstraint=eastwest;" vertex="1" parent="U-wffOwQVO6PHUZPgBqM-9">
          <mxGeometry y="26" width="160" height="26" as="geometry" />
        </mxCell>
        <mxCell id="U-wffOwQVO6PHUZPgBqM-11" value="+ nama_bimbingan: varchar" style="text;strokeColor=none;fillColor=none;align=left;verticalAlign=top;spacingLeft=4;spacingRight=4;overflow=hidden;rotatable=0;points=[[0,0.5],[1,0.5]];portConstraint=eastwest;" vertex="1" parent="U-wffOwQVO6PHUZPgBqM-9">
          <mxGeometry y="52" width="160" height="26" as="geometry" />
        </mxCell>
        <mxCell id="U-wffOwQVO6PHUZPgBqM-12" value="+ angkatan_bim: varchar" style="text;strokeColor=none;fillColor=none;align=left;verticalAlign=top;spacingLeft=4;spacingRight=4;overflow=hidden;rotatable=0;points=[[0,0.5],[1,0.5]];portConstraint=eastwest;" vertex="1" parent="U-wffOwQVO6PHUZPgBqM-9">
          <mxGeometry y="78" width="160" height="26" as="geometry" />
        </mxCell>
        <mxCell id="U-wffOwQVO6PHUZPgBqM-14" value="Dokumen" style="swimlane;fontStyle=0;childLayout=stackLayout;horizontal=1;startSize=26;fillColor=none;horizontalStack=0;resizeParent=1;resizeParentMax=0;resizeLast=0;collapsible=1;marginBottom=0;" vertex="1" parent="1">
          <mxGeometry x="690" y="220" width="140" height="104" as="geometry" />
        </mxCell>
        <mxCell id="U-wffOwQVO6PHUZPgBqM-15" value="+ id_doc: int" style="text;strokeColor=none;fillColor=none;align=left;verticalAlign=top;spacingLeft=4;spacingRight=4;overflow=hidden;rotatable=0;points=[[0,0.5],[1,0.5]];portConstraint=eastwest;" vertex="1" parent="U-wffOwQVO6PHUZPgBqM-14">
          <mxGeometry y="26" width="140" height="26" as="geometry" />
        </mxCell>
        <mxCell id="U-wffOwQVO6PHUZPgBqM-16" value="+ nama_doc: varchar" style="text;strokeColor=none;fillColor=none;align=left;verticalAlign=top;spacingLeft=4;spacingRight=4;overflow=hidden;rotatable=0;points=[[0,0.5],[1,0.5]];portConstraint=eastwest;" vertex="1" parent="U-wffOwQVO6PHUZPgBqM-14">
          <mxGeometry y="52" width="140" height="26" as="geometry" />
        </mxCell>
        <mxCell id="U-wffOwQVO6PHUZPgBqM-17" value="+ keterang_doc: varchar" style="text;strokeColor=none;fillColor=none;align=left;verticalAlign=top;spacingLeft=4;spacingRight=4;overflow=hidden;rotatable=0;points=[[0,0.5],[1,0.5]];portConstraint=eastwest;" vertex="1" parent="U-wffOwQVO6PHUZPgBqM-14">
          <mxGeometry y="78" width="140" height="26" as="geometry" />
        </mxCell>
        <mxCell id="U-wffOwQVO6PHUZPgBqM-22" value="Kurikulum" style="swimlane;fontStyle=0;childLayout=stackLayout;horizontal=1;startSize=26;fillColor=none;horizontalStack=0;resizeParent=1;resizeParentMax=0;resizeLast=0;collapsible=1;marginBottom=0;" vertex="1" parent="1">
          <mxGeometry x="150" y="220" width="150" height="104" as="geometry" />
        </mxCell>
        <mxCell id="U-wffOwQVO6PHUZPgBqM-23" value="+ id_kurik: int" style="text;strokeColor=none;fillColor=none;align=left;verticalAlign=top;spacingLeft=4;spacingRight=4;overflow=hidden;rotatable=0;points=[[0,0.5],[1,0.5]];portConstraint=eastwest;" vertex="1" parent="U-wffOwQVO6PHUZPgBqM-22">
          <mxGeometry y="26" width="150" height="26" as="geometry" />
        </mxCell>
        <mxCell id="U-wffOwQVO6PHUZPgBqM-24" value="+ nama_kurik: varchar" style="text;strokeColor=none;fillColor=none;align=left;verticalAlign=top;spacingLeft=4;spacingRight=4;overflow=hidden;rotatable=0;points=[[0,0.5],[1,0.5]];portConstraint=eastwest;" vertex="1" parent="U-wffOwQVO6PHUZPgBqM-22">
          <mxGeometry y="52" width="150" height="26" as="geometry" />
        </mxCell>
        <mxCell id="U-wffOwQVO6PHUZPgBqM-25" value="+ keterang_kurik: varchar" style="text;strokeColor=none;fillColor=none;align=left;verticalAlign=top;spacingLeft=4;spacingRight=4;overflow=hidden;rotatable=0;points=[[0,0.5],[1,0.5]];portConstraint=eastwest;" vertex="1" parent="U-wffOwQVO6PHUZPgBqM-22">
          <mxGeometry y="78" width="150" height="26" as="geometry" />
        </mxCell>
        <mxCell id="U-wffOwQVO6PHUZPgBqM-26" value="Mahasiswa" style="swimlane;fontStyle=0;childLayout=stackLayout;horizontal=1;startSize=26;fillColor=none;horizontalStack=0;resizeParent=1;resizeParentMax=0;resizeLast=0;collapsible=1;marginBottom=0;" vertex="1" parent="1">
          <mxGeometry x="155" y="400" width="140" height="104" as="geometry" />
        </mxCell>
        <mxCell id="U-wffOwQVO6PHUZPgBqM-27" value="+ id_nama: int" style="text;strokeColor=none;fillColor=none;align=left;verticalAlign=top;spacingLeft=4;spacingRight=4;overflow=hidden;rotatable=0;points=[[0,0.5],[1,0.5]];portConstraint=eastwest;" vertex="1" parent="U-wffOwQVO6PHUZPgBqM-26">
          <mxGeometry y="26" width="140" height="26" as="geometry" />
        </mxCell>
        <mxCell id="U-wffOwQVO6PHUZPgBqM-28" value="+ nama_user: varchar" style="text;strokeColor=none;fillColor=none;align=left;verticalAlign=top;spacingLeft=4;spacingRight=4;overflow=hidden;rotatable=0;points=[[0,0.5],[1,0.5]];portConstraint=eastwest;" vertex="1" parent="U-wffOwQVO6PHUZPgBqM-26">
          <mxGeometry y="52" width="140" height="26" as="geometry" />
        </mxCell>
        <mxCell id="U-wffOwQVO6PHUZPgBqM-29" value="+ pass_user: varchar" style="text;strokeColor=none;fillColor=none;align=left;verticalAlign=top;spacingLeft=4;spacingRight=4;overflow=hidden;rotatable=0;points=[[0,0.5],[1,0.5]];portConstraint=eastwest;" vertex="1" parent="U-wffOwQVO6PHUZPgBqM-26">
          <mxGeometry y="78" width="140" height="26" as="geometry" />
        </mxCell>
        <mxCell id="U-wffOwQVO6PHUZPgBqM-31" value="Alumni" style="swimlane;fontStyle=0;childLayout=stackLayout;horizontal=1;startSize=26;fillColor=none;horizontalStack=0;resizeParent=1;resizeParentMax=0;resizeLast=0;collapsible=1;marginBottom=0;" vertex="1" parent="1">
          <mxGeometry x="415" y="220" width="150" height="130" as="geometry" />
        </mxCell>
        <mxCell id="U-wffOwQVO6PHUZPgBqM-32" value="+ id_alumni: int" style="text;strokeColor=none;fillColor=none;align=left;verticalAlign=top;spacingLeft=4;spacingRight=4;overflow=hidden;rotatable=0;points=[[0,0.5],[1,0.5]];portConstraint=eastwest;" vertex="1" parent="U-wffOwQVO6PHUZPgBqM-31">
          <mxGeometry y="26" width="150" height="26" as="geometry" />
        </mxCell>
        <mxCell id="U-wffOwQVO6PHUZPgBqM-33" value="+ nama_alumni: varchar" style="text;strokeColor=none;fillColor=none;align=left;verticalAlign=top;spacingLeft=4;spacingRight=4;overflow=hidden;rotatable=0;points=[[0,0.5],[1,0.5]];portConstraint=eastwest;" vertex="1" parent="U-wffOwQVO6PHUZPgBqM-31">
          <mxGeometry y="52" width="150" height="26" as="geometry" />
        </mxCell>
        <mxCell id="U-wffOwQVO6PHUZPgBqM-34" value="+ alamat_alumni: varchar&#xa;&#xa;+ kontak_alumni: varchar" style="text;strokeColor=none;fillColor=none;align=left;verticalAlign=top;spacingLeft=4;spacingRight=4;overflow=hidden;rotatable=0;points=[[0,0.5],[1,0.5]];portConstraint=eastwest;" vertex="1" parent="U-wffOwQVO6PHUZPgBqM-31">
          <mxGeometry y="78" width="150" height="52" as="geometry" />
        </mxCell>
        <mxCell id="U-wffOwQVO6PHUZPgBqM-48" value="" style="endArrow=none;html=1;rounded=0;exitX=1;exitY=0.5;exitDx=0;exitDy=0;entryX=0;entryY=0.5;entryDx=0;entryDy=0;startArrow=none;" edge="1" parent="1" source="U-wffOwQVO6PHUZPgBqM-72" target="U-wffOwQVO6PHUZPgBqM-3">
          <mxGeometry width="50" height="50" relative="1" as="geometry">
            <mxPoint x="450" y="130" as="sourcePoint" />
            <mxPoint x="500" y="80" as="targetPoint" />
          </mxGeometry>
        </mxCell>
        <mxCell id="U-wffOwQVO6PHUZPgBqM-49" value="" style="endArrow=none;html=1;rounded=0;entryX=0;entryY=0.5;entryDx=0;entryDy=0;exitX=1;exitY=0.5;exitDx=0;exitDy=0;startArrow=none;" edge="1" parent="1" source="U-wffOwQVO6PHUZPgBqM-60" target="U-wffOwQVO6PHUZPgBqM-11">
          <mxGeometry width="50" height="50" relative="1" as="geometry">
            <mxPoint x="460" y="210" as="sourcePoint" />
            <mxPoint x="510" y="160" as="targetPoint" />
          </mxGeometry>
        </mxCell>
        <mxCell id="U-wffOwQVO6PHUZPgBqM-51" value="" style="endArrow=none;html=1;rounded=0;entryX=0.508;entryY=1.026;entryDx=0;entryDy=0;entryPerimeter=0;exitX=0.552;exitY=-0.028;exitDx=0;exitDy=0;exitPerimeter=0;startArrow=none;" edge="1" parent="1" source="U-wffOwQVO6PHUZPgBqM-68" target="U-wffOwQVO6PHUZPgBqM-4">
          <mxGeometry width="50" height="50" relative="1" as="geometry">
            <mxPoint x="496" y="200" as="sourcePoint" />
            <mxPoint x="510" y="160" as="targetPoint" />
          </mxGeometry>
        </mxCell>
        <mxCell id="U-wffOwQVO6PHUZPgBqM-52" value="" style="endArrow=none;html=1;rounded=0;exitX=0.5;exitY=0;exitDx=0;exitDy=0;entryX=0.507;entryY=0.962;entryDx=0;entryDy=0;entryPerimeter=0;startArrow=none;" edge="1" parent="1" source="U-wffOwQVO6PHUZPgBqM-78" target="U-wffOwQVO6PHUZPgBqM-12">
          <mxGeometry width="50" height="50" relative="1" as="geometry">
            <mxPoint x="460" y="210" as="sourcePoint" />
            <mxPoint x="760" y="110" as="targetPoint" />
          </mxGeometry>
        </mxCell>
        <mxCell id="U-wffOwQVO6PHUZPgBqM-53" value="" style="endArrow=none;html=1;rounded=0;exitX=0.5;exitY=0;exitDx=0;exitDy=0;startArrow=none;" edge="1" parent="1" source="U-wffOwQVO6PHUZPgBqM-64">
          <mxGeometry width="50" height="50" relative="1" as="geometry">
            <mxPoint x="460" y="210" as="sourcePoint" />
            <mxPoint x="225" y="130" as="targetPoint" />
          </mxGeometry>
        </mxCell>
        <mxCell id="U-wffOwQVO6PHUZPgBqM-54" value="" style="endArrow=none;html=1;rounded=0;exitX=0.5;exitY=0;exitDx=0;exitDy=0;startArrow=none;" edge="1" parent="1" source="U-wffOwQVO6PHUZPgBqM-62">
          <mxGeometry width="50" height="50" relative="1" as="geometry">
            <mxPoint x="460" y="380" as="sourcePoint" />
            <mxPoint x="225" y="330" as="targetPoint" />
          </mxGeometry>
        </mxCell>
        <mxCell id="U-wffOwQVO6PHUZPgBqM-55" value="1..*" style="text;strokeColor=none;fillColor=none;align=left;verticalAlign=middle;spacingLeft=4;spacingRight=4;overflow=hidden;points=[[0,0.5],[1,0.5]];portConstraint=eastwest;rotatable=0;fontSize=10;" vertex="1" parent="1">
          <mxGeometry x="295" y="50" width="25" height="30" as="geometry" />
        </mxCell>
        <mxCell id="U-wffOwQVO6PHUZPgBqM-56" value="" style="endArrow=none;html=1;rounded=0;exitX=1;exitY=0.5;exitDx=0;exitDy=0;entryX=0;entryY=0.5;entryDx=0;entryDy=0;" edge="1" parent="1" source="U-wffOwQVO6PHUZPgBqM-7" target="U-wffOwQVO6PHUZPgBqM-55">
          <mxGeometry width="50" height="50" relative="1" as="geometry">
            <mxPoint x="300" y="65" as="sourcePoint" />
            <mxPoint x="425" y="65" as="targetPoint" />
          </mxGeometry>
        </mxCell>
        <mxCell id="U-wffOwQVO6PHUZPgBqM-57" value="1..*" style="text;strokeColor=none;fillColor=none;align=left;verticalAlign=middle;spacingLeft=4;spacingRight=4;overflow=hidden;points=[[0,0.5],[1,0.5]];portConstraint=eastwest;rotatable=0;fontSize=10;" vertex="1" parent="1">
          <mxGeometry x="482.5" y="190" width="25" height="30" as="geometry" />
        </mxCell>
        <mxCell id="U-wffOwQVO6PHUZPgBqM-59" value="" style="endArrow=none;html=1;rounded=0;entryX=0.508;entryY=1.026;entryDx=0;entryDy=0;entryPerimeter=0;exitX=0.552;exitY=-0.028;exitDx=0;exitDy=0;exitPerimeter=0;" edge="1" parent="1" source="U-wffOwQVO6PHUZPgBqM-31" target="U-wffOwQVO6PHUZPgBqM-57">
          <mxGeometry width="50" height="50" relative="1" as="geometry">
            <mxPoint x="497.8000000000002" y="216.36" as="sourcePoint" />
            <mxPoint x="496.1200000000001" y="104.67600000000004" as="targetPoint" />
          </mxGeometry>
        </mxCell>
        <mxCell id="U-wffOwQVO6PHUZPgBqM-60" value="1..*" style="text;strokeColor=none;fillColor=none;align=left;verticalAlign=middle;spacingLeft=4;spacingRight=4;overflow=hidden;points=[[0,0.5],[1,0.5]];portConstraint=eastwest;rotatable=0;fontSize=10;" vertex="1" parent="1">
          <mxGeometry x="655" y="48" width="25" height="30" as="geometry" />
        </mxCell>
        <mxCell id="U-wffOwQVO6PHUZPgBqM-61" value="" style="endArrow=none;html=1;rounded=0;entryX=0;entryY=0.5;entryDx=0;entryDy=0;startArrow=none;exitX=1;exitY=0.5;exitDx=0;exitDy=0;" edge="1" parent="1" source="U-wffOwQVO6PHUZPgBqM-70" target="U-wffOwQVO6PHUZPgBqM-60">
          <mxGeometry width="50" height="50" relative="1" as="geometry">
            <mxPoint x="590" y="60" as="sourcePoint" />
            <mxPoint x="680" y="65" as="targetPoint" />
          </mxGeometry>
        </mxCell>
        <mxCell id="U-wffOwQVO6PHUZPgBqM-62" value="1..*" style="text;strokeColor=none;fillColor=none;align=left;verticalAlign=middle;spacingLeft=4;spacingRight=4;overflow=hidden;points=[[0,0.5],[1,0.5]];portConstraint=eastwest;rotatable=0;fontSize=10;" vertex="1" parent="1">
          <mxGeometry x="212.5" y="320" width="25" height="30" as="geometry" />
        </mxCell>
        <mxCell id="U-wffOwQVO6PHUZPgBqM-63" value="" style="endArrow=none;html=1;rounded=0;exitX=0.5;exitY=0;exitDx=0;exitDy=0;startArrow=none;" edge="1" parent="1" source="U-wffOwQVO6PHUZPgBqM-76" target="U-wffOwQVO6PHUZPgBqM-62">
          <mxGeometry width="50" height="50" relative="1" as="geometry">
            <mxPoint x="225" y="400" as="sourcePoint" />
            <mxPoint x="225" y="330" as="targetPoint" />
          </mxGeometry>
        </mxCell>
        <mxCell id="U-wffOwQVO6PHUZPgBqM-64" value="1..*" style="text;strokeColor=none;fillColor=none;align=left;verticalAlign=middle;spacingLeft=4;spacingRight=4;overflow=hidden;points=[[0,0.5],[1,0.5]];portConstraint=eastwest;rotatable=0;fontSize=10;" vertex="1" parent="1">
          <mxGeometry x="212.5" y="130" width="25" height="30" as="geometry" />
        </mxCell>
        <mxCell id="U-wffOwQVO6PHUZPgBqM-65" value="" style="endArrow=none;html=1;rounded=0;exitX=0.5;exitY=0;exitDx=0;exitDy=0;startArrow=none;" edge="1" parent="1" source="U-wffOwQVO6PHUZPgBqM-74" target="U-wffOwQVO6PHUZPgBqM-64">
          <mxGeometry width="50" height="50" relative="1" as="geometry">
            <mxPoint x="225" y="220" as="sourcePoint" />
            <mxPoint x="225" y="130" as="targetPoint" />
          </mxGeometry>
        </mxCell>
        <mxCell id="U-wffOwQVO6PHUZPgBqM-66" value="1..*" style="text;strokeColor=none;fillColor=none;align=left;verticalAlign=middle;spacingLeft=4;spacingRight=4;overflow=hidden;points=[[0,0.5],[1,0.5]];portConstraint=eastwest;rotatable=0;fontSize=10;" vertex="1" parent="1">
          <mxGeometry x="747.5" y="190" width="25" height="30" as="geometry" />
        </mxCell>
        <mxCell id="U-wffOwQVO6PHUZPgBqM-67" value="" style="endArrow=none;html=1;rounded=0;exitX=0.5;exitY=0;exitDx=0;exitDy=0;entryX=0.507;entryY=0.962;entryDx=0;entryDy=0;entryPerimeter=0;" edge="1" parent="1" source="U-wffOwQVO6PHUZPgBqM-14" target="U-wffOwQVO6PHUZPgBqM-66">
          <mxGeometry width="50" height="50" relative="1" as="geometry">
            <mxPoint x="760" y="220" as="sourcePoint" />
            <mxPoint x="761.1200000000001" y="103.01200000000006" as="targetPoint" />
          </mxGeometry>
        </mxCell>
        <mxCell id="U-wffOwQVO6PHUZPgBqM-68" value="1" style="text;strokeColor=none;fillColor=none;align=left;verticalAlign=middle;spacingLeft=4;spacingRight=4;overflow=hidden;points=[[0,0.5],[1,0.5]];portConstraint=eastwest;rotatable=0;fontSize=10;" vertex="1" parent="1">
          <mxGeometry x="482.5" y="100" width="25" height="30" as="geometry" />
        </mxCell>
        <mxCell id="U-wffOwQVO6PHUZPgBqM-69" value="" style="endArrow=none;html=1;rounded=0;entryX=0.508;entryY=1.026;entryDx=0;entryDy=0;entryPerimeter=0;exitX=0.552;exitY=-0.028;exitDx=0;exitDy=0;exitPerimeter=0;startArrow=none;" edge="1" parent="1" source="U-wffOwQVO6PHUZPgBqM-57" target="U-wffOwQVO6PHUZPgBqM-68">
          <mxGeometry width="50" height="50" relative="1" as="geometry">
            <mxPoint x="496.29999999999995" y="189.15999999999997" as="sourcePoint" />
            <mxPoint x="496.1200000000001" y="104.67600000000004" as="targetPoint" />
          </mxGeometry>
        </mxCell>
        <mxCell id="U-wffOwQVO6PHUZPgBqM-70" value="1" style="text;strokeColor=none;fillColor=none;align=left;verticalAlign=middle;spacingLeft=4;spacingRight=4;overflow=hidden;points=[[0,0.5],[1,0.5]];portConstraint=eastwest;rotatable=0;fontSize=10;" vertex="1" parent="1">
          <mxGeometry x="565" y="48" width="25" height="30" as="geometry" />
        </mxCell>
        <mxCell id="U-wffOwQVO6PHUZPgBqM-71" value="" style="endArrow=none;html=1;rounded=0;entryX=0;entryY=0.5;entryDx=0;entryDy=0;exitX=1;exitY=0.5;exitDx=0;exitDy=0;" edge="1" parent="1" source="U-wffOwQVO6PHUZPgBqM-3" target="U-wffOwQVO6PHUZPgBqM-70">
          <mxGeometry width="50" height="50" relative="1" as="geometry">
            <mxPoint x="565" y="65" as="sourcePoint" />
            <mxPoint x="655" y="65" as="targetPoint" />
          </mxGeometry>
        </mxCell>
        <mxCell id="U-wffOwQVO6PHUZPgBqM-72" value="1" style="text;strokeColor=none;fillColor=none;align=left;verticalAlign=middle;spacingLeft=4;spacingRight=4;overflow=hidden;points=[[0,0.5],[1,0.5]];portConstraint=eastwest;rotatable=0;fontSize=10;" vertex="1" parent="1">
          <mxGeometry x="400" y="50" width="25" height="30" as="geometry" />
        </mxCell>
        <mxCell id="U-wffOwQVO6PHUZPgBqM-73" value="" style="endArrow=none;html=1;rounded=0;exitX=1;exitY=0.5;exitDx=0;exitDy=0;entryX=0;entryY=0.5;entryDx=0;entryDy=0;startArrow=none;" edge="1" parent="1" source="U-wffOwQVO6PHUZPgBqM-55" target="U-wffOwQVO6PHUZPgBqM-72">
          <mxGeometry width="50" height="50" relative="1" as="geometry">
            <mxPoint x="320" y="65" as="sourcePoint" />
            <mxPoint x="425" y="65" as="targetPoint" />
          </mxGeometry>
        </mxCell>
        <mxCell id="U-wffOwQVO6PHUZPgBqM-74" value="1" style="text;strokeColor=none;fillColor=none;align=left;verticalAlign=middle;spacingLeft=4;spacingRight=4;overflow=hidden;points=[[0,0.5],[1,0.5]];portConstraint=eastwest;rotatable=0;fontSize=10;" vertex="1" parent="1">
          <mxGeometry x="212.5" y="190" width="25" height="30" as="geometry" />
        </mxCell>
        <mxCell id="U-wffOwQVO6PHUZPgBqM-75" value="" style="endArrow=none;html=1;rounded=0;exitX=0.5;exitY=0;exitDx=0;exitDy=0;" edge="1" parent="1" source="U-wffOwQVO6PHUZPgBqM-22" target="U-wffOwQVO6PHUZPgBqM-74">
          <mxGeometry width="50" height="50" relative="1" as="geometry">
            <mxPoint x="225" y="220" as="sourcePoint" />
            <mxPoint x="225" y="160" as="targetPoint" />
          </mxGeometry>
        </mxCell>
        <mxCell id="U-wffOwQVO6PHUZPgBqM-76" value="1" style="text;strokeColor=none;fillColor=none;align=left;verticalAlign=middle;spacingLeft=4;spacingRight=4;overflow=hidden;points=[[0,0.5],[1,0.5]];portConstraint=eastwest;rotatable=0;fontSize=10;" vertex="1" parent="1">
          <mxGeometry x="212.5" y="370" width="25" height="30" as="geometry" />
        </mxCell>
        <mxCell id="U-wffOwQVO6PHUZPgBqM-77" value="" style="endArrow=none;html=1;rounded=0;exitX=0.5;exitY=0;exitDx=0;exitDy=0;" edge="1" parent="1" source="U-wffOwQVO6PHUZPgBqM-26" target="U-wffOwQVO6PHUZPgBqM-76">
          <mxGeometry width="50" height="50" relative="1" as="geometry">
            <mxPoint x="225" y="400" as="sourcePoint" />
            <mxPoint x="225" y="350" as="targetPoint" />
          </mxGeometry>
        </mxCell>
        <mxCell id="U-wffOwQVO6PHUZPgBqM-78" value="1" style="text;strokeColor=none;fillColor=none;align=left;verticalAlign=middle;spacingLeft=4;spacingRight=4;overflow=hidden;points=[[0,0.5],[1,0.5]];portConstraint=eastwest;rotatable=0;fontSize=10;" vertex="1" parent="1">
          <mxGeometry x="747.5" y="100" width="25" height="30" as="geometry" />
        </mxCell>
        <mxCell id="U-wffOwQVO6PHUZPgBqM-79" value="" style="endArrow=none;html=1;rounded=0;exitX=0.5;exitY=0;exitDx=0;exitDy=0;entryX=0.507;entryY=0.962;entryDx=0;entryDy=0;entryPerimeter=0;startArrow=none;" edge="1" parent="1" source="U-wffOwQVO6PHUZPgBqM-66" target="U-wffOwQVO6PHUZPgBqM-78">
          <mxGeometry width="50" height="50" relative="1" as="geometry">
            <mxPoint x="760" y="190" as="sourcePoint" />
            <mxPoint x="761.1199999999999" y="103.01200000000006" as="targetPoint" />
          </mxGeometry>
        </mxCell>
      </root>
    </mxGraphModel>
  </diagram>
</mxfile>
